<svg id="Layer_1" data-name="Layer 1" xmlns="http://www.w3.org/2000/svg" viewBox="0 0 625.7 85.92"><defs><style>.cls-1,.cls-3{fill:#fff;}.cls-2{fill:#3e606f;}.cls-3{fill-rule:evenodd;}</style></defs><title>header-logo</title><path class="cls-1" d="M40.18,70c-4,0-5.7.16-5.7.16l.61-1.38c1.29-3,1.7-3.81,1.7-25.45H14.32c0,21.72.27,22.29,1.7,25.45l.61,1.38S15,70,11,70s-5.7.16-5.7.16l.61-1.38c1.35-3.08,1.69-3.64,1.69-28,0-23.58-.27-23.91-1.69-27.15L5.3,12.3s1.62.16,5.63.16,5.7-.16,5.7-.16L16,13.68c-1.29,2.92-1.7,3.73-1.7,23.66H36.79c0-19.85-.34-20.58-1.7-23.66l-.61-1.38s1.63.16,5.63.16,5.71-.16,5.71-.16l-.62,1.38c-1.35,3.08-1.69,3.65-1.69,28,0,23.59.27,23.91,1.69,27.15l.62,1.38S44.19,70,40.18,70Z" transform="translate(-5.3 -1.1)"/><path class="cls-1" d="M60.15,47.6C60.15,56,62.52,65.4,72,65.4S83.9,59.76,83.9,59.76C83.9,65.48,80,71,70.47,71c-11.07,0-17.31-8.42-17.31-23C53.16,31,61.1,24.15,70,24.15c14,0,15.47,13.75,15.47,22.65v.8Zm9.64-18.68c-4,0-9.44,1.67-9.57,14.78l18.12-1.59C78.34,37.82,77.79,28.92,69.79,28.92Z" transform="translate(-5.3 -1.1)"/><path class="cls-1" d="M113.64,70.73l.27-9.38c-1.7,8.58-7.26,9.69-11.13,9.69C93.14,71,90.9,63.49,90.9,58c0-13.44,9.71-14.15,15.88-14.15a53.86,53.86,0,0,1,6.73.4V40.52c0-3.18,0-6.2-1.3-8.26-1.08-1.75-3.25-3-7-3a10.9,10.9,0,0,0-10.38,5.89s.13-1.83.13-4.45-.13-4.29-.13-4.29,3.39-2.23,11.54-2.23c7.06,0,10,2.3,11.54,4.61,2.1,3.1,2.1,7.15,2.1,12.16,0,1.67-.14,6.83-.14,15.18,0,5.8.41,8.66,1.63,11.29l.61,1.35ZM113.51,49a26.38,26.38,0,0,0-5.64-.4c-3.8,0-10.11.32-10.11,8.58,0,5.88,3.19,8.43,7.33,8.43,6.92,0,8.42-4.93,8.42-4.93Z" transform="translate(-5.3 -1.1)"/><path class="cls-1" d="M153.69,70.66l.27-8c-1.83,5.31-5.49,8.14-11.6,8.14-3.26,0-15.21-1.06-15.21-19.95,0-16.83,8.76-21.64,17.24-21.64,6.32,0,9,3,9,3,0-10.32-.68-12.94-1.69-14.85l-.62-1.2,9-1.77s-.2,7.78-.2,15v22c0,12.23.61,14.21,1.69,16.27l.62,1.2Zm-.27-34.8s-2.31-2.12-7.4-2.12c-8.41,0-11.81,6.08-11.81,16.55,0,7.92,2.65,15.41,10.52,15.41,4.28,0,6.45-1.06,8.69-3.88Z" transform="translate(-5.3 -1.1)"/><path class="cls-1" d="M218.25,43l-7.12,27.18s-1.63-.16-4-.16-4,.16-4,.16l-7.54-33.46a42.77,42.77,0,0,1-.81-5.33,34.65,34.65,0,0,1-.75,5.17l-7.74,33.62a35.9,35.9,0,0,0-3.93-.16c-2.72,0-4.21.16-4.21.16l-6.65-27c-3-11.93-4.21-16-6.25-18.13,0,0,2.11.16,6,.16,4.48,0,6.31-.16,6.31-.16-.88.72-1.9,1.91-1.9,4.61,0,2.39.47,4.77,2.17,12.48l4,18.36a42.35,42.35,0,0,1,.82,5.25,32.35,32.35,0,0,1,.88-5.17l8.15-35.61s1.49.16,3.8.16a37.12,37.12,0,0,0,3.73-.16l8,35.69a35.82,35.82,0,0,1,.74,4.93,36.45,36.45,0,0,1,.89-5.09l4.07-17.64c1.83-8,2.51-11,2.51-13.2,0-2.7-1-3.89-1.83-4.61,0,0,2.1.16,5.9.16s5.37-.16,5.37-.16C222.26,27.8,220.56,34.16,218.25,43Z" transform="translate(-5.3 -1.1)"/><path class="cls-1" d="M248.27,70.73l.27-9.38c-1.7,8.58-7.27,9.69-11.13,9.69-9.64,0-11.88-7.55-11.88-13,0-13.44,9.7-14.15,15.88-14.15a53.59,53.59,0,0,1,6.72.4V40.52c0-3.18,0-6.2-1.29-8.26-1.09-1.75-3.26-3-7-3a10.92,10.92,0,0,0-10.39,5.89s.14-1.83.14-4.45-.14-4.29-.14-4.29,3.4-2.23,11.54-2.23c7.06,0,10.05,2.3,11.54,4.61,2.11,3.1,2.11,7.15,2.11,12.16,0,1.67-.14,6.83-.14,15.18,0,5.8.41,8.66,1.63,11.29l.61,1.35ZM248.13,49a26.2,26.2,0,0,0-5.63-.4c-3.81,0-10.12.32-10.12,8.58,0,5.88,3.19,8.43,7.33,8.43,6.93,0,8.42-4.93,8.42-4.93Z" transform="translate(-5.3 -1.1)"/><path class="cls-1" d="M288.32,43,278.2,76.92c-2.3,7.87-6.1,10.1-11.47,10.1-4.48,0-5.9-.72-5.9-.72s.14-2.06.14-4.61c0-2.78-.14-5.16-.14-5.16,2.31,4.29,3.39,5.72,5.9,5.72,3.4,0,5.1-2.3,6.66-7.39l.74-2.47L264.9,43.15C261.24,31.46,260,27.17,258,25c0,0,2.17.16,6,.16,4.55,0,6.45-.16,6.45-.16-.88.72-1.9,1.91-1.9,4.61,0,2.39.54,4.85,2.78,12.4l5,17.09a47.22,47.22,0,0,1,1.08,4.69,37.8,37.8,0,0,1,.95-4.21l4.48-16.69c2.1-8,2.92-11.13,2.92-13.28,0-2.7-1-3.89-1.9-4.61,0,0,1.83.16,5.7.16,4.07,0,5.7-.16,5.7-.16C292.66,27.8,290.9,34.24,288.32,43Z" transform="translate(-5.3 -1.1)"/><path class="cls-1" d="M173.14,5.48V7.15h-2.29v7.13a2.54,2.54,0,0,0,.05.54.62.62,0,0,0,.21.31,1,1,0,0,0,.44.14,4.67,4.67,0,0,0,.72,0h.87V17h-1.45a6.38,6.38,0,0,1-1.25-.1,1.79,1.79,0,0,1-.85-.36,1.66,1.66,0,0,1-.48-.76,4.47,4.47,0,0,1-.15-1.29V7.15h-2V5.48h2V2h1.89V5.48Z" transform="translate(-5.3 -1.1)"/><path class="cls-1" d="M177.12,1.1V7.17h0a2.54,2.54,0,0,1,.62-.9,3.37,3.37,0,0,1,.9-.6,5,5,0,0,1,1-.35,5.61,5.61,0,0,1,1.06-.11,5.19,5.19,0,0,1,1.89.31,3,3,0,0,1,1.87,2.19,6.91,6.91,0,0,1,.19,1.7V17h-1.89V9.19a2.27,2.27,0,0,0-.62-1.69,2.31,2.31,0,0,0-1.71-.62,3.79,3.79,0,0,0-1.5.27A2.8,2.8,0,0,0,178,7.9a3.3,3.3,0,0,0-.63,1.15,4.62,4.62,0,0,0-.21,1.43V17h-1.89V1.1Z" transform="translate(-5.3 -1.1)"/><path class="cls-1" d="M195.73,16.24a5.23,5.23,0,0,1-3.25,1,5.86,5.86,0,0,1-2.39-.45,4.71,4.71,0,0,1-1.7-1.24,5.25,5.25,0,0,1-1-1.91,9.22,9.22,0,0,1-.39-2.43,6.87,6.87,0,0,1,.4-2.4,5.78,5.78,0,0,1,1.12-1.89,5,5,0,0,1,1.71-1.24,5.17,5.17,0,0,1,2.17-.45,4.69,4.69,0,0,1,2.55.64,5.08,5.08,0,0,1,1.62,1.61,6.39,6.39,0,0,1,.85,2.13,9.42,9.42,0,0,1,.18,2.2H189a4.25,4.25,0,0,0,.18,1.44,3.17,3.17,0,0,0,.64,1.2,3.23,3.23,0,0,0,1.14.83,3.84,3.84,0,0,0,1.62.31,3.28,3.28,0,0,0,2-.55,2.74,2.74,0,0,0,1-1.69h1.87A4.62,4.62,0,0,1,195.73,16.24Zm-.46-7.38a3.26,3.26,0,0,0-.69-1,3.67,3.67,0,0,0-1-.69,3.56,3.56,0,0,0-2.62,0,3.07,3.07,0,0,0-1,.71,3.11,3.11,0,0,0-.67,1,3.74,3.74,0,0,0-.29,1.26h6.6A3.87,3.87,0,0,0,195.27,8.86Z" transform="translate(-5.3 -1.1)"/><path class="cls-1" d="M207.67,1.1V7h0a2.8,2.8,0,0,1,1.47-1.38,5.47,5.47,0,0,1,2.2-.44,5.16,5.16,0,0,1,2.33.49A4.93,4.93,0,0,1,215.35,7a5.79,5.79,0,0,1,1,1.93,7.87,7.87,0,0,1,.33,2.31,7.91,7.91,0,0,1-.32,2.31,5.28,5.28,0,0,1-1,1.9,4.53,4.53,0,0,1-1.64,1.28,5.37,5.37,0,0,1-2.3.47,5.61,5.61,0,0,1-1-.09,5.46,5.46,0,0,1-1-.29,3.87,3.87,0,0,1-1-.54,3.19,3.19,0,0,1-.77-.86h0V17h-1.89V1.1Zm6.79,8.46a4.21,4.21,0,0,0-.64-1.37,3.22,3.22,0,0,0-1.11-1,3.52,3.52,0,0,0-1.6-.35,3.29,3.29,0,0,0-1.62.38,3.24,3.24,0,0,0-1.09,1,4.17,4.17,0,0,0-.61,1.39,6.45,6.45,0,0,0-.19,1.58,6.8,6.8,0,0,0,.2,1.63,4.13,4.13,0,0,0,.64,1.39,3.21,3.21,0,0,0,1.12,1,3.55,3.55,0,0,0,1.67.36,3.25,3.25,0,0,0,1.63-.37,3.11,3.11,0,0,0,1.06-1,4.19,4.19,0,0,0,.57-1.42,7.43,7.43,0,0,0,.18-1.64A5.89,5.89,0,0,0,214.46,9.56Z" transform="translate(-5.3 -1.1)"/><path class="cls-1" d="M220.61,5.48V7.9h0a5.25,5.25,0,0,1,1.69-2.07,4.31,4.31,0,0,1,2.54-.62v2a5.56,5.56,0,0,0-1.94.31,3.14,3.14,0,0,0-1.29.92,3.86,3.86,0,0,0-.71,1.45,7.8,7.8,0,0,0-.22,2V17h-1.89V5.48Z" transform="translate(-5.3 -1.1)"/><path class="cls-1" d="M236.49,16.93a2.72,2.72,0,0,1-1.36.29,1.65,1.65,0,0,1-1.17-.41,1.79,1.79,0,0,1-.43-1.35,4.52,4.52,0,0,1-1.81,1.35,6.11,6.11,0,0,1-2.24.41A5.94,5.94,0,0,1,228,17a3.53,3.53,0,0,1-1.21-.55,2.81,2.81,0,0,1-.81-1,3.34,3.34,0,0,1-.3-1.48,3.37,3.37,0,0,1,.33-1.6,3,3,0,0,1,.88-1,4.37,4.37,0,0,1,1.25-.59c.46-.13.94-.24,1.43-.33s1-.18,1.48-.23a8.57,8.57,0,0,0,1.23-.22,2.06,2.06,0,0,0,.85-.43,1,1,0,0,0,.31-.81,2,2,0,0,0-.23-1,1.75,1.75,0,0,0-.6-.58,2.45,2.45,0,0,0-.83-.26,5.46,5.46,0,0,0-.9-.07,3.92,3.92,0,0,0-2,.46A1.94,1.94,0,0,0,228,9.06h-1.89a4,4,0,0,1,.45-1.8,3.32,3.32,0,0,1,1.07-1.19,4.44,4.44,0,0,1,1.52-.66,8.21,8.21,0,0,1,1.83-.2,11.42,11.42,0,0,1,1.55.11,4.22,4.22,0,0,1,1.39.46,2.71,2.71,0,0,1,1,1,3.13,3.13,0,0,1,.38,1.62v5.9a4.66,4.66,0,0,0,.07,1c.06.21.23.31.53.31a2.35,2.35,0,0,0,.58-.09ZM233.42,11a2.47,2.47,0,0,1-.94.38,10.91,10.91,0,0,1-1.21.2L230,11.8a4.7,4.7,0,0,0-1.15.32,2.22,2.22,0,0,0-.84.63,1.82,1.82,0,0,0-.32,1.12,1.46,1.46,0,0,0,.19.78,1.56,1.56,0,0,0,.49.53,2.1,2.1,0,0,0,.7.28,3.86,3.86,0,0,0,.84.09,4.44,4.44,0,0,0,1.6-.25,3.29,3.29,0,0,0,1.09-.65,2.38,2.38,0,0,0,.63-.84,2.14,2.14,0,0,0,.2-.85Z" transform="translate(-5.3 -1.1)"/><path class="cls-1" d="M238.35,3.41V1.1h1.89V3.41Zm1.89,2.07V17h-1.89V5.48Z" transform="translate(-5.3 -1.1)"/><path class="cls-1" d="M245,5.48V7.3h0a4,4,0,0,1,3.74-2.09,5.19,5.19,0,0,1,1.89.31,3.15,3.15,0,0,1,1.22.87,3.29,3.29,0,0,1,.66,1.32,7.45,7.45,0,0,1,.18,1.7V17H250.8V9.19a2.27,2.27,0,0,0-.62-1.69,2.31,2.31,0,0,0-1.71-.62,3.79,3.79,0,0,0-1.5.27,2.8,2.8,0,0,0-1.06.75,3.3,3.3,0,0,0-.63,1.15,4.62,4.62,0,0,0-.21,1.43V17h-1.89V5.48Z" transform="translate(-5.3 -1.1)"/><path class="cls-1" d="M261.83,3.41V1.1h1.89V3.41Zm1.89,2.07V17h-1.89V5.48Z" transform="translate(-5.3 -1.1)"/><path class="cls-1" d="M268.44,5.48V7.3h0a4,4,0,0,1,3.74-2.09,5.19,5.19,0,0,1,1.89.31,3.15,3.15,0,0,1,1.22.87A3.29,3.29,0,0,1,276,7.71a7.43,7.43,0,0,1,.19,1.7V17h-1.9V9.19a2.27,2.27,0,0,0-.62-1.69A2.31,2.31,0,0,0,272,6.88a3.79,3.79,0,0,0-1.5.27,2.8,2.8,0,0,0-1.06.75,3.3,3.3,0,0,0-.63,1.15,4.62,4.62,0,0,0-.21,1.43V17h-1.89V5.48Z" transform="translate(-5.3 -1.1)"/><path class="cls-1" d="M280.28,20.65a2.82,2.82,0,0,1-2,.7,5.7,5.7,0,0,1-.95-.08V19.64l.19,0h.56a.94.94,0,0,0,.85-.35,2.41,2.41,0,0,0,.22-1.23V5.48H281V18.42A3,3,0,0,1,280.28,20.65ZM279.13,3.41V1.1H281V3.41Z" transform="translate(-5.3 -1.1)"/><path class="cls-1" d="M291.7,17V15.15h-.05a3.86,3.86,0,0,1-1.53,1.57,4.68,4.68,0,0,1-2.21.5,5.11,5.11,0,0,1-1.88-.3,3,3,0,0,1-1.23-.86,3.15,3.15,0,0,1-.65-1.32A6.91,6.91,0,0,1,284,13V5.48h1.89v7.78a2.26,2.26,0,0,0,.62,1.69,2.29,2.29,0,0,0,1.71.62,4,4,0,0,0,1.5-.26,2.75,2.75,0,0,0,1.06-.76,3.34,3.34,0,0,0,.63-1.14,4.73,4.73,0,0,0,.21-1.44V5.48h1.89V17Z" transform="translate(-5.3 -1.1)"/><path class="cls-1" d="M298,5.48V7.9h.05a5.17,5.17,0,0,1,1.69-2.07,4.25,4.25,0,0,1,2.53-.62v2a5.5,5.5,0,0,0-1.93.31,3,3,0,0,0-1.29.92,3.58,3.58,0,0,0-.71,1.45,7.78,7.78,0,0,0-.23,2V17h-1.89V5.48Z" transform="translate(-5.3 -1.1)"/><path class="cls-1" d="M308.24,18.51a10.72,10.72,0,0,1-.66,1.42,3.8,3.8,0,0,1-.71.95,2.46,2.46,0,0,1-.87.53,3.34,3.34,0,0,1-1.1.17,4.89,4.89,0,0,1-.66,0,3.42,3.42,0,0,1-.65-.15V19.64a2.54,2.54,0,0,0,.57.19,2.43,2.43,0,0,0,.54.08,1.59,1.59,0,0,0,1-.28,1.66,1.66,0,0,0,.59-.79l.78-1.93L302.48,5.48h2.13l3.36,9.4h0l3.22-9.4h2Z" transform="translate(-5.3 -1.1)"/><path class="cls-1" d="M331.21,16.93a2.72,2.72,0,0,1-1.36.29,1.65,1.65,0,0,1-1.17-.41,1.84,1.84,0,0,1-.43-1.35,4.52,4.52,0,0,1-1.81,1.35,6.11,6.11,0,0,1-2.24.41,5.94,5.94,0,0,1-1.48-.18,3.53,3.53,0,0,1-1.21-.55,2.81,2.81,0,0,1-.81-1,3.34,3.34,0,0,1-.3-1.48,3.25,3.25,0,0,1,.34-1.6,2.89,2.89,0,0,1,.87-1,4.5,4.5,0,0,1,1.25-.59c.47-.13.94-.24,1.43-.33s1-.18,1.48-.23A9,9,0,0,0,327,10a2.08,2.08,0,0,0,.84-.43,1,1,0,0,0,.31-.81,2,2,0,0,0-.23-1,1.75,1.75,0,0,0-.6-.58A2.45,2.45,0,0,0,326.5,7a5.46,5.46,0,0,0-.9-.07,4,4,0,0,0-2,.46,1.91,1.91,0,0,0-.86,1.72h-1.89a4,4,0,0,1,.44-1.8,3.32,3.32,0,0,1,1.07-1.19,4.44,4.44,0,0,1,1.52-.66,8.24,8.24,0,0,1,1.84-.2,11.39,11.39,0,0,1,1.54.11,4.14,4.14,0,0,1,1.39.46,2.63,2.63,0,0,1,1,1A3.13,3.13,0,0,1,330,8.36v5.9a4,4,0,0,0,.08,1c.05.21.22.31.52.31a2.28,2.28,0,0,0,.58-.09ZM328.14,11a2.48,2.48,0,0,1-.93.38,11.09,11.09,0,0,1-1.22.2c-.42.06-.85.11-1.27.18a4.79,4.79,0,0,0-1.16.32,2.22,2.22,0,0,0-.84.63,1.82,1.82,0,0,0-.32,1.12,1.55,1.55,0,0,0,.19.78,1.66,1.66,0,0,0,.49.53,2.1,2.1,0,0,0,.7.28,3.89,3.89,0,0,0,.85.09,4.52,4.52,0,0,0,1.6-.25,3.5,3.5,0,0,0,1.09-.65,2.35,2.35,0,0,0,.62-.84,2.14,2.14,0,0,0,.2-.85Z" transform="translate(-5.3 -1.1)"/><path class="cls-1" d="M334.41,14.41a2,2,0,0,0,.7.69,3,3,0,0,0,1,.36,5.19,5.19,0,0,0,1.12.11,7.5,7.5,0,0,0,.93-.06,3.69,3.69,0,0,0,.91-.25,1.65,1.65,0,0,0,.67-.52,1.38,1.38,0,0,0,.27-.88,1.23,1.23,0,0,0-.56-1.11,4.59,4.59,0,0,0-1.39-.61c-.55-.16-1.16-.3-1.81-.42a9.8,9.8,0,0,1-1.81-.54,3.67,3.67,0,0,1-1.39-1,2.5,2.5,0,0,1-.56-1.73A2.76,2.76,0,0,1,332.86,7a3.32,3.32,0,0,1,1-1,4.74,4.74,0,0,1,1.38-.58,6.17,6.17,0,0,1,1.53-.19,9.17,9.17,0,0,1,1.8.17A4,4,0,0,1,340,6a3,3,0,0,1,1,1.11,4.2,4.2,0,0,1,.44,1.74h-1.89a1.82,1.82,0,0,0-.91-1.51,2.82,2.82,0,0,0-.84-.32,4.05,4.05,0,0,0-.92-.1,5,5,0,0,0-.85.07,2.7,2.7,0,0,0-.79.23,1.62,1.62,0,0,0-.58.44,1.13,1.13,0,0,0-.22.73,1.07,1.07,0,0,0,.34.81,2.78,2.78,0,0,0,.88.53,8.15,8.15,0,0,0,1.2.36c.44.09.89.19,1.33.3a12.34,12.34,0,0,1,1.39.38,4,4,0,0,1,1.2.59,2.88,2.88,0,0,1,.85.92,2.76,2.76,0,0,1,.32,1.38,3.19,3.19,0,0,1-.43,1.73,3.36,3.36,0,0,1-1.14,1.11,4.69,4.69,0,0,1-1.57.59,9.52,9.52,0,0,1-1.75.17,8.19,8.19,0,0,1-1.82-.2,4.36,4.36,0,0,1-1.54-.66,3.25,3.25,0,0,1-1.06-1.2,4.09,4.09,0,0,1-.45-1.81h1.89A2.06,2.06,0,0,0,334.41,14.41Z" transform="translate(-5.3 -1.1)"/><path class="cls-1" d="M345.53,14.41a2,2,0,0,0,.7.69,3,3,0,0,0,1,.36,5.13,5.13,0,0,0,1.12.11,7.5,7.5,0,0,0,.93-.06,3.5,3.5,0,0,0,.9-.25,1.68,1.68,0,0,0,.68-.52,1.38,1.38,0,0,0,.27-.88,1.26,1.26,0,0,0-.56-1.11,4.59,4.59,0,0,0-1.39-.61c-.55-.16-1.16-.3-1.81-.42a9.58,9.58,0,0,1-1.81-.54,3.67,3.67,0,0,1-1.39-1,2.5,2.5,0,0,1-.56-1.73A2.76,2.76,0,0,1,344,7a3.21,3.21,0,0,1,1-1,4.74,4.74,0,0,1,1.38-.58,6.15,6.15,0,0,1,1.52-.19,9.2,9.2,0,0,1,1.81.17,4.05,4.05,0,0,1,1.45.58,2.93,2.93,0,0,1,1,1.11,4.2,4.2,0,0,1,.45,1.74h-1.89a1.82,1.82,0,0,0-.91-1.51A2.93,2.93,0,0,0,349,7a4.05,4.05,0,0,0-.92-.1,5.07,5.07,0,0,0-.86.07,2.79,2.79,0,0,0-.79.23,1.58,1.58,0,0,0-.57.44,1.14,1.14,0,0,0-.23.73,1.08,1.08,0,0,0,.35.81,2.78,2.78,0,0,0,.88.53,7.8,7.8,0,0,0,1.2.36c.44.09.89.19,1.33.3a12.34,12.34,0,0,1,1.39.38,4.2,4.2,0,0,1,1.2.59,2.88,2.88,0,0,1,.85.92,2.76,2.76,0,0,1,.32,1.38,3.19,3.19,0,0,1-.43,1.73,3.36,3.36,0,0,1-1.14,1.11,4.67,4.67,0,0,1-1.58.59,9.33,9.33,0,0,1-1.74.17,8.34,8.34,0,0,1-1.83-.2,4.31,4.31,0,0,1-1.53-.66,3.36,3.36,0,0,1-1.07-1.2,4.23,4.23,0,0,1-.44-1.81h1.89A2.06,2.06,0,0,0,345.53,14.41Z" transform="translate(-5.3 -1.1)"/><path class="cls-1" d="M354.93,8.87A5.5,5.5,0,0,1,356,7a5,5,0,0,1,1.76-1.28,6.39,6.39,0,0,1,4.81,0A5.12,5.12,0,0,1,364.32,7a5.32,5.32,0,0,1,1.06,1.91,7.55,7.55,0,0,1,.36,2.37,7.42,7.42,0,0,1-.36,2.35,5.41,5.41,0,0,1-1.06,1.91,4.94,4.94,0,0,1-1.75,1.26,6.52,6.52,0,0,1-4.81,0A4.81,4.81,0,0,1,356,15.5a5.59,5.59,0,0,1-1.07-1.91,7.72,7.72,0,0,1-.35-2.35A7.85,7.85,0,0,1,354.93,8.87Zm1.93,4.22a3.8,3.8,0,0,0,.76,1.36,3.35,3.35,0,0,0,1.15.83,3.48,3.48,0,0,0,2.78,0,3.22,3.22,0,0,0,1.14-.83,3.81,3.81,0,0,0,.77-1.36,5.58,5.58,0,0,0,.28-1.85,5.6,5.6,0,0,0-.28-1.86A4,4,0,0,0,362.69,8a3.13,3.13,0,0,0-1.14-.84,3.48,3.48,0,0,0-2.78,0,3.25,3.25,0,0,0-1.15.84,4,4,0,0,0-.76,1.37,5.6,5.6,0,0,0-.28,1.86A5.58,5.58,0,0,0,356.86,13.09Z" transform="translate(-5.3 -1.1)"/><path class="cls-1" d="M374.83,7.48a2.86,2.86,0,0,0-1.91-.6,3.54,3.54,0,0,0-1.71.38,3,3,0,0,0-1.1,1,4.07,4.07,0,0,0-.59,1.43,7.72,7.72,0,0,0-.18,1.68,6.8,6.8,0,0,0,.19,1.56,4.17,4.17,0,0,0,.59,1.34,3,3,0,0,0,1.05,1,3.2,3.2,0,0,0,1.53.35,3.1,3.1,0,0,0,2.19-.73,3.31,3.31,0,0,0,1-2.07h1.93a5.32,5.32,0,0,1-1.59,3.29,5,5,0,0,1-3.48,1.16,6,6,0,0,1-2.32-.42,4.64,4.64,0,0,1-1.69-1.2,5.24,5.24,0,0,1-1-1.86,7.75,7.75,0,0,1-.35-2.37A8.51,8.51,0,0,1,367.67,9a5.63,5.63,0,0,1,1-2,4.73,4.73,0,0,1,1.7-1.31,5.52,5.52,0,0,1,2.38-.48,6.75,6.75,0,0,1,1.83.24,4.31,4.31,0,0,1,1.51.72,3.89,3.89,0,0,1,1.08,1.23,4.72,4.72,0,0,1,.54,1.77h-2A2.86,2.86,0,0,0,374.83,7.48Z" transform="translate(-5.3 -1.1)"/><path class="cls-1" d="M380,3.41V1.1h1.88V3.41Zm1.88,2.07V17H380V5.48Z" transform="translate(-5.3 -1.1)"/><path class="cls-1" d="M395,16.93a2.65,2.65,0,0,1-1.35.29,1.65,1.65,0,0,1-1.17-.41,1.79,1.79,0,0,1-.43-1.35,4.55,4.55,0,0,1-1.82,1.35,6.05,6.05,0,0,1-2.23.41,5.94,5.94,0,0,1-1.48-.18,3.45,3.45,0,0,1-1.21-.55,2.81,2.81,0,0,1-.81-1,3.34,3.34,0,0,1-.3-1.48,3.37,3.37,0,0,1,.33-1.6,2.81,2.81,0,0,1,.88-1,4.44,4.44,0,0,1,1.24-.59q.7-.2,1.44-.33c.52-.1,1-.18,1.48-.23a9.12,9.12,0,0,0,1.23-.22,2.06,2.06,0,0,0,.85-.43,1,1,0,0,0,.31-.81,1.85,1.85,0,0,0-.24-1,1.59,1.59,0,0,0-.6-.58,2.39,2.39,0,0,0-.82-.26,5.46,5.46,0,0,0-.9-.07,3.92,3.92,0,0,0-2,.46,1.94,1.94,0,0,0-.87,1.72h-1.89a4,4,0,0,1,.45-1.8,3.29,3.29,0,0,1,1.06-1.19,4.58,4.58,0,0,1,1.53-.66,8.21,8.21,0,0,1,1.83-.2,11.42,11.42,0,0,1,1.55.11,4.22,4.22,0,0,1,1.39.46,2.78,2.78,0,0,1,1,1,3.13,3.13,0,0,1,.37,1.62v5.9a4.51,4.51,0,0,0,.08,1c.05.21.23.31.53.31a2.22,2.22,0,0,0,.57-.09ZM392,11a2.47,2.47,0,0,1-.94.38,10.91,10.91,0,0,1-1.21.2l-1.28.18a4.92,4.92,0,0,0-1.16.32,2.18,2.18,0,0,0-.83.63,1.82,1.82,0,0,0-.32,1.12,1.46,1.46,0,0,0,.19.78,1.56,1.56,0,0,0,.49.53,2.1,2.1,0,0,0,.7.28,3.73,3.73,0,0,0,.84.09,4.48,4.48,0,0,0,1.6-.25,3.29,3.29,0,0,0,1.09-.65,2.51,2.51,0,0,0,.63-.84A2.14,2.14,0,0,0,392,13Z" transform="translate(-5.3 -1.1)"/><path class="cls-1" d="M401.69,5.48V7.15H399.4v7.13a2,2,0,0,0,.06.54.62.62,0,0,0,.21.31,1,1,0,0,0,.43.14,4.9,4.9,0,0,0,.73,0h.86V17h-1.44a6.56,6.56,0,0,1-1.26-.1,1.71,1.71,0,0,1-.84-.36,1.51,1.51,0,0,1-.48-.76,4.1,4.1,0,0,1-.16-1.29V7.15h-1.95V5.48h1.95V2h1.89V5.48Z" transform="translate(-5.3 -1.1)"/><path class="cls-1" d="M403.9,3.41V1.1h1.89V3.41Zm1.89,2.07V17H403.9V5.48Z" transform="translate(-5.3 -1.1)"/><path class="cls-1" d="M408.45,8.87A5.5,5.5,0,0,1,409.52,7a5,5,0,0,1,1.76-1.28,6.39,6.39,0,0,1,4.81,0A5.12,5.12,0,0,1,417.84,7a5.32,5.32,0,0,1,1.06,1.91,7.55,7.55,0,0,1,.36,2.37,7.42,7.42,0,0,1-.36,2.35,5.41,5.41,0,0,1-1.06,1.91,4.94,4.94,0,0,1-1.75,1.26,6.52,6.52,0,0,1-4.81,0,4.81,4.81,0,0,1-1.76-1.26,5.59,5.59,0,0,1-1.07-1.91,7.72,7.72,0,0,1-.35-2.35A7.85,7.85,0,0,1,408.45,8.87Zm1.93,4.22a3.8,3.8,0,0,0,.76,1.36,3.35,3.35,0,0,0,1.15.83,3.4,3.4,0,0,0,3.92-.83,3.81,3.81,0,0,0,.77-1.36,5.58,5.58,0,0,0,.28-1.85A5.6,5.6,0,0,0,417,9.38,4,4,0,0,0,416.21,8a3.22,3.22,0,0,0-1.14-.84,3.48,3.48,0,0,0-2.78,0,3.25,3.25,0,0,0-1.15.84,4,4,0,0,0-.76,1.37,5.6,5.6,0,0,0-.28,1.86A5.58,5.58,0,0,0,410.38,13.09Z" transform="translate(-5.3 -1.1)"/><path class="cls-1" d="M423.26,5.48V7.3h.05A4,4,0,0,1,427,5.21a5.11,5.11,0,0,1,1.89.31,3.27,3.27,0,0,1,1.23.87,3.27,3.27,0,0,1,.65,1.32,6.91,6.91,0,0,1,.19,1.7V17h-1.89V9.19a2.31,2.31,0,0,0-.62-1.69,2.35,2.35,0,0,0-1.72-.62,3.86,3.86,0,0,0-1.5.27,2.77,2.77,0,0,0-1,.75,3.49,3.49,0,0,0-.64,1.15,4.62,4.62,0,0,0-.21,1.43V17h-1.89V5.48Z" transform="translate(-5.3 -1.1)"/><path class="cls-2" d="M298.66,35.25V25.42h28.88v9.83h-8.71V69.86H307.25V35.25Z" transform="translate(-5.3 -1.1)"/><path class="cls-2" d="M331.65,25.42h12.51l4.35,15.5h.13L353,25.42h12.7L354.36,52.37V69.86H342.79V52.37Z" transform="translate(-5.3 -1.1)"/><path class="cls-2" d="M380.44,25.42,387.9,52.8H388V25.42h10.83V69.86h-12.7l-7.71-27.45h-.13V69.86H367.49V25.42Z" transform="translate(-5.3 -1.1)"/><path class="cls-2" d="M430.66,25.42v9.46H415.91v7.59h13.82v9.09H415.91V60.4h15.31v9.46H404.33V25.42Z" transform="translate(-5.3 -1.1)"/><path class="cls-2" d="M452.75,37.18a6.7,6.7,0,0,0-.81-3.39,2.69,2.69,0,0,0-2.49-1.4,3.18,3.18,0,0,0-2.74,1.21,4.58,4.58,0,0,0-.87,2.71,4.45,4.45,0,0,0,1.4,3.46A13.25,13.25,0,0,0,450.76,42q2.12.93,4.54,1.89a21.08,21.08,0,0,1,4.55,2.52,12.5,12.5,0,0,1,3.51,4.08,13.4,13.4,0,0,1,1.4,6.57q0,7.1-4,10.3T449,70.54a31,31,0,0,1-6.38-.59,11.47,11.47,0,0,1-4.67-2,9.29,9.29,0,0,1-2.89-3.83,15,15,0,0,1-1-5.85V56.66h11.2v1.06c0,1.91.36,3.25,1.06,4a3.56,3.56,0,0,0,2.74,1.16,3.3,3.3,0,0,0,2.77-1.25,4.83,4.83,0,0,0,1-3,4.54,4.54,0,0,0-1.33-3.45A11.88,11.88,0,0,0,448.11,53c-1.34-.6-2.81-1.21-4.38-1.84a19.33,19.33,0,0,1-4.39-2.42A12,12,0,0,1,436,44.78a13.15,13.15,0,0,1-1.34-6.35q0-6.78,3.61-10.33t10.95-3.55q7.6,0,11,3.27t3.39,10.42H452.75Z" transform="translate(-5.3 -1.1)"/><path class="cls-2" d="M480,25.42V69.86H468.43V25.42Z" transform="translate(-5.3 -1.1)"/><path class="cls-2" d="M501.85,25.42c3.36,0,6,.61,7.84,1.84a11.33,11.33,0,0,1,4.2,4.91,20.92,20.92,0,0,1,1.72,7.1c.2,2.68.31,5.47.31,8.37s-.11,5.69-.31,8.37a20.86,20.86,0,0,1-1.72,7.09,11.3,11.3,0,0,1-4.2,4.92c-1.86,1.22-4.48,1.84-7.84,1.84h-16.8V25.42Zm-2.92,36.1a6.36,6.36,0,0,0,2.67-.47,3.17,3.17,0,0,0,1.53-2,16,16,0,0,0,.68-4.23c.11-1.83.16-4.23.16-7.22s-.05-5.39-.16-7.22a15.86,15.86,0,0,0-.68-4.23,3.17,3.17,0,0,0-1.53-2,6.36,6.36,0,0,0-2.67-.47h-2.31V61.52Z" transform="translate(-5.3 -1.1)"/><path class="cls-2" d="M547.09,25.42v9.46H532.35v7.59h13.81v9.09H532.35V60.4h15.31v9.46H520.77V25.42Z" transform="translate(-5.3 -1.1)"/><path class="cls-3" d="M568.67,42.32a50.27,50.27,0,0,1,7.87-16.9c2.5-4.05-.73-5.69-3.63-3.47a27.5,27.5,0,0,0-3.71,3.1c-1.42-.89-2.51-.84-4.08,1.09C554,41.48,551.6,60.89,568.86,75c-14-15.78-14.09-31-3.4-47.41,1.71-2.14,3.24-1.41,3.4.23-.63,3.6-4.13,10.53-4.38,16.48a1.79,1.79,0,0,0,1.09-.76,114.12,114.12,0,0,1,4.2-14.82,3.62,3.62,0,0,0,.23-3l3.7-3.06c1.85-1.38,3.48.39,2.08,2.11-4.25,6.1-6.38,9.41-8.51,18.23a2.32,2.32,0,0,0,1.4-.65Z" transform="translate(-5.3 -1.1)"/><path class="cls-3" d="M582,67.58c-.76-4.26-9.45-6.25-11.12-11l-1.36-6.28c-.55-3.81-4.43-5.5-5.9-.76-2.32,8.4,2.55,18.91,6.36,25-2.58-7.79-6-16.34-5.22-24.05.83-3,2.57-2.87,3.63.45l1.21,5.75c.89,4.21,7.93,6.71,12.4,10.89Z" transform="translate(-5.3 -1.1)"/><path class="cls-3" d="M594.29,39.49c-2.88-2.57-8.64-2.46-13.63-.8-.36-.12-.51-.54,0-1,4.94-3.73,11.24-3.3,13.91.61.5.65.22,1.7-.28,1.17Z" transform="translate(-5.3 -1.1)"/><path class="cls-3" d="M592.72,43.27A6.34,6.34,0,0,0,583,42.4c4.62-1.46,7.32-1,9.68.87Z" transform="translate(-5.3 -1.1)"/><path class="cls-1" d="M582.37,44.16c0,1.44,2.61,2.2,5.19,2.2s5.18-.76,5.18-2.2-2.61-2.2-5.18-2.2S582.37,42.72,582.37,44.16Zm.88,0c0-.53,1.72-1.32,4.31-1.32s4.3.79,4.3,1.32-1.72,1.32-4.3,1.32S583.25,44.68,583.25,44.16Z" transform="translate(-5.3 -1.1)"/><path class="cls-3" d="M588.07,42.14c-1.52,0-2.51.89-2.51,2s1,2,2.51,2,2.57-.87,2.57-2S589.59,42.14,588.07,42.14Zm.56,2.42a.45.45,0,0,1-.45-.44.46.46,0,0,1,.91,0A.45.45,0,0,1,588.63,44.56Z" transform="translate(-5.3 -1.1)"/><path class="cls-3" d="M592,63.5c3.15-.78,5.62-2.32,8-3.48a3,3,0,0,0,2.72.3L606,61.41l-.31,1.1c-6.73-2.95-9.78,2.13-13.69,1Z" transform="translate(-5.3 -1.1)"/><path class="cls-3" d="M602,56.39c3.13-2.24-2.9-7.51-2-15.12.89-2.61,3.18-3.85,7.41-6.21-1.54-4.71-5.2-10.1-6.66-12.09-1.26-1.84-1.16-4.36,2.12-3.94l2.57.91a4,4,0,0,1,3.33,0c12.8,6.43,33.32,32.21,14.82,53.08,7-9.4,8.27-24.7-.31-37.12-1-1.46-3.93-2.7-4.76,2a61.75,61.75,0,0,0,.83,8.4c.42,9.37-9.16,9.46-5.14,24.34-4.84-10.78.61-15,4-21.47.5-2-.51-7.11-.53-10.21-.17-1.61-.47-6.1,3.63-6.12A47,47,0,0,0,609,21.08c-1.94-.91-2.74.07-2.64,1,4.16,5.49,7.26,10.53,8.62,16.48a.65.65,0,0,1-1.14-.3c-1.68-6.66-5.82-11.79-9.22-17.31-3-1.47-4.66-.81-2.65,2a35.41,35.41,0,0,1,6.66,11l-1.62,10a16.12,16.12,0,0,1,1.16,12.34L604.7,70.6c-2.72,4.14-5.59,5.85-10.89,5.15,6.71-.83,10.09-4.16,10.74-7.72.86-8.31,6-16.45,1.73-22.72l-.08-.43a3.36,3.36,0,0,0,.28-1.39c0-.4-.08-1.06-.08-1.06l.25-.37.47-4.27c-1,.64-4.1,1.05-5.13,1.85a6.07,6.07,0,0,0-.77,2.68C600.34,47,607,57.65,602,56.39Z" transform="translate(-5.3 -1.1)"/><path class="cls-3" d="M596,55.56c-.81.16-.58,1.36-.17,1.74.31.13.67,0,.53-.46a2.31,2.31,0,0,1-.36-1.28Z" transform="translate(-5.3 -1.1)"/><path class="cls-3" d="M597.14,57.15c-.14-.89,4-2.22,4.31-1.27.64,1.65-4.56,2-4.31,1.27Z" transform="translate(-5.3 -1.1)"/><path class="cls-3" d="M598.07,63.82c.55-.13,5-.18,7.38-.61l-.12.63c-1.57.36-4.93,1.35-7.42.37-.23-.1-.14-.32.16-.39Z" transform="translate(-5.3 -1.1)"/><path class="cls-1" d="M601.57,40.91l-.52.13.19.75.52-.13a11,11,0,0,1,5-.49l.16-.76A11.77,11.77,0,0,0,601.57,40.91Z" transform="translate(-5.3 -1.1)"/><path class="cls-1" d="M600.85,42.62l.29.72a13.75,13.75,0,0,1,5.53-.9l0-.79A14.66,14.66,0,0,0,600.85,42.62Z" transform="translate(-5.3 -1.1)"/><path class="cls-1" d="M601.1,45.36a12.08,12.08,0,0,0,5.18,0l.18-.62a13.36,13.36,0,0,1-5.16-.17Z" transform="translate(-5.3 -1.1)"/><path class="cls-3" d="M604.3,42c-1.23,0-2.23.72-2.23,1.59s1,1.6,2.23,1.6,1.88-.67,1.88-1.54A1.68,1.68,0,0,0,604.3,42Zm.63,1.88a.35.35,0,0,1-.36-.35.37.37,0,0,1,.73,0A.35.35,0,0,1,604.93,43.86Z" transform="translate(-5.3 -1.1)"/></svg>